<?xml version="1.0" standalone="no"?>
<!DOCTYPE svg PUBLIC "-//W3C//DTD SVG 20010904//EN"
 "http://www.w3.org/TR/2001/REC-SVG-20010904/DTD/svg10.dtd">
<svg version="1.0" xmlns="http://www.w3.org/2000/svg"
 width="200.000000pt" height="200.000000pt" viewBox="0 0 200.000000 200.000000"
 preserveAspectRatio="xMidYMid meet">

<g transform="translate(0.000000,200.000000) scale(0.100000,-0.100000)"
fill="#000000" stroke="none">
<path d="M850 1682 c-139 -39 -242 -103 -339 -208 -103 -112 -163 -258 -177
-425 l-7 -78 -36 -6 c-68 -11 -67 -9 -30 -160 l34 -137 35 6 c19 3 45 9 57 12
18 5 27 -4 57 -50 72 -112 215 -228 336 -271 271 -97 553 -29 750 182 77 83
137 191 164 299 19 75 19 74 3 74 -9 0 -19 -22 -26 -57 -30 -134 -123 -282
-229 -366 -134 -105 -287 -153 -456 -144 -169 9 -303 67 -421 182 -58 56 -130
153 -121 163 2 2 37 12 78 23 63 16 110 19 346 19 l273 0 -30 54 c-36 62 -37
66 -14 66 9 0 14 2 11 5 -3 3 -106 -20 -230 -50 -125 -30 -233 -55 -241 -55
-11 0 -24 37 -47 133 -18 72 -33 133 -34 134 -1 1 -44 -9 -96 -22 l-95 -22 -3
47 c-8 131 67 316 175 430 117 125 247 191 415 211 78 10 108 9 183 -4 176
-31 342 -139 439 -286 50 -75 54 -86 30 -95 -34 -13 -52 -6 -65 26 -18 45
-176 205 -188 193 -6 -6 -32 -48 -59 -95 l-50 -85 31 -55 c17 -30 32 -57 33
-59 2 -2 42 6 90 18 48 12 90 18 94 14 4 -4 20 -60 35 -123 15 -63 29 -116 31
-118 1 -2 70 13 153 33 108 26 151 41 151 51 0 24 -52 228 -61 238 -4 5 -36 2
-75 -8 -36 -9 -68 -16 -69 -14 -2 2 -20 32 -41 67 -77 133 -217 245 -373 298
-103 35 -292 42 -391 15z"/>
<path d="M895 1595 c-218 -47 -392 -217 -450 -440 -27 -106 -28 -105 66 -105
59 0 78 -3 73 -12 -5 -8 -2 -9 10 -5 10 4 24 7 31 7 12 0 60 80 293 483 25 42
43 79 41 81 -2 2 -31 -2 -64 -9z"/>
<path d="M920 1393 c-69 -119 -139 -241 -157 -270 -17 -29 -28 -53 -25 -53 22
-1 350 85 343 90 -5 3 41 90 101 194 85 145 107 191 96 197 -22 15 -130 46
-183 53 l-50 7 -125 -218z"/>
<path d="M1177 1211 c-15 -23 -26 -41 -25 -41 29 5 109 29 98 29 -9 1 -22 13
-31 27 l-15 25 -27 -40z"/>
<path d="M1346 1179 c-44 -11 -82 -21 -84 -24 -2 -2 1 -20 8 -40 8 -26 16 -35
27 -31 8 3 17 6 19 6 2 0 4 7 4 16 0 9 6 14 13 12 16 -6 35 -100 20 -105 -13
-5 -5 -43 10 -43 5 0 27 5 48 12 27 8 39 17 39 30 0 10 -6 18 -14 18 -15 0
-42 98 -30 109 4 3 9 0 11 -6 5 -15 39 -18 47 -5 9 15 -10 67 -25 69 -8 0 -50
-8 -93 -18z"/>
<path d="M1183 1139 c-23 -7 -33 -16 -33 -29 0 -11 5 -20 12 -20 9 0 9 -3 -1
-12 -10 -11 -15 -9 -26 6 -8 10 -16 23 -17 27 -2 5 -20 6 -41 2 -31 -5 -38 -9
-35 -27 2 -12 8 -21 13 -21 6 0 22 -8 36 -18 25 -17 26 -20 16 -54 -6 -19 -17
-37 -24 -40 -14 -6 -18 -39 -5 -47 5 -3 27 0 50 6 44 11 54 31 30 57 -11 10
-9 12 6 9 15 -2 39 -29 41 -45 1 -1 20 3 43 9 31 8 42 15 38 25 -4 8 -6 18 -6
23 0 4 -8 6 -18 3 -10 -2 -27 6 -40 20 -21 22 -22 26 -7 59 8 20 19 38 25 40
14 4 2 38 -14 37 -6 0 -26 -5 -43 -10z"/>
<path d="M917 1074 c-48 -12 -91 -24 -94 -27 -3 -3 0 -21 7 -41 10 -30 14 -34
33 -27 12 5 22 13 22 19 0 28 15 19 24 -15 13 -47 14 -70 2 -77 -9 -6 -4 -46
6 -46 2 0 24 5 49 11 37 10 44 15 44 35 0 14 -6 24 -14 24 -15 0 -19 10 -31
68 -6 30 8 47 17 21 2 -7 13 -9 27 -4 19 6 21 11 16 38 -4 18 -10 35 -14 38
-3 3 -46 -5 -94 -17z"/>
<path d="M1820 1012 c0 -34 3 -39 19 -35 21 5 18 38 -6 61 -11 11 -13 7 -13
-26z"/>
<path d="M1780 999 c0 -52 24 -48 28 4 2 28 -1 37 -12 37 -12 0 -16 -11 -16
-41z m17 -16 c-3 -10 -5 -2 -5 17 0 19 2 27 5 18 2 -10 2 -26 0 -35z"/>
<path d="M670 1013 c-69 -18 -77 -26 -51 -50 24 -22 47 -113 31 -123 -13 -8
-2 -40 14 -40 30 1 130 30 152 44 27 19 33 66 10 85 -8 7 -14 26 -14 43 2 57
-39 69 -142 41z m90 -43 c0 -17 -49 -35 -61 -23 -6 6 -8 16 -5 22 9 14 66 14
66 1z m20 -79 c0 -19 -42 -37 -60 -26 -16 10 -11 33 8 38 38 10 52 7 52 -12z"/>
<path d="M1740 990 c0 -29 4 -40 15 -40 8 0 15 8 15 18 0 14 -2 15 -10 2 -7
-11 -10 -7 -10 18 0 20 4 31 10 27 6 -3 10 -1 10 4 0 6 -7 11 -15 11 -11 0
-15 -11 -15 -40z"/>
<path d="M1670 1011 c-8 -6 -18 -7 -24 -4 -5 4 -7 -1 -3 -11 4 -10 7 -28 7
-40 0 -13 6 -23 15 -23 10 0 13 7 9 24 -4 12 -3 31 2 40 6 14 9 8 14 -22 l6
-40 5 43 c5 43 -2 50 -31 33z"/>
<path d="M1593 993 c-19 -4 -21 -9 -16 -41 8 -50 13 -53 13 -9 0 43 12 48 28
13 8 -19 8 -26 -1 -30 -7 -2 -4 -5 7 -5 15 -1 17 4 11 22 -4 12 -7 30 -8 40
-1 9 -4 16 -7 16 -3 -1 -15 -4 -27 -6z"/>
<path d="M1510 935 c0 -33 4 -45 13 -42 7 2 12 20 12 42 0 22 -5 40 -12 43 -9
2 -13 -10 -13 -43z"/>
<path d="M1553 940 c0 -25 2 -35 4 -22 2 12 2 32 0 45 -2 12 -4 2 -4 -23z"/>
<path d="M1468 931 c20 -35 26 -34 16 3 -3 14 -12 26 -20 26 -10 0 -9 -6 4
-29z"/>
<path d="M1418 943 c7 -3 16 -2 19 1 4 3 -2 6 -13 5 -11 0 -14 -3 -6 -6z"/>
<path d="M1245 905 c-71 -18 -123 -33 -115 -34 8 -1 59 -78 115 -176 55 -96
106 -175 113 -175 14 0 144 126 159 155 9 17 -1 40 -57 137 -38 64 -66 119
-63 122 11 11 -22 5 -152 -29z"/>
<path d="M1543 887 l-43 -12 31 -54 c17 -29 34 -49 39 -45 7 7 40 108 40 121
0 5 -23 2 -67 -10z"/>
<path d="M549 651 c21 -38 142 -139 204 -169 102 -51 175 -65 302 -60 86 4
123 10 170 29 33 13 59 28 59 33 0 4 -22 48 -50 97 l-49 89 -323 0 c-313 0
-322 -1 -313 -19z"/>
</g>
</svg>
